<?xml version="1.0" standalone="no"?>
<!DOCTYPE svg PUBLIC "-//W3C//DTD SVG 20010904//EN"
 "http://www.w3.org/TR/2001/REC-SVG-20010904/DTD/svg10.dtd">
<svg version="1.0" xmlns="http://www.w3.org/2000/svg"
 width="140.000000pt" height="130.000000pt" viewBox="0 0 140.000000 130.000000"
 preserveAspectRatio="xMidYMid meet">
<metadata>
Created by potrace 1.10, written by Peter Selinger 2001-2011
</metadata>
<g transform="translate(0.000000,130.000000) scale(0.100000,-0.100000)"
fill="#000000" stroke="none">
<path d="M419 1157 c-43 -29 -79 -82 -79 -118 0 -17 -5 -29 -13 -29 -36 0 -87
-90 -87 -152 0 -38 -3 -45 -30 -56 -34 -16 -75 -65 -85 -102 l-6 -25 82 3 c54
2 87 9 96 18 19 19 68 18 87 -2 9 -8 16 -28 16 -43 0 -53 -62 -80 -101 -45
-14 12 -40 17 -99 18 -76 1 -80 0 -80 -21 0 -26 79 -113 102 -113 12 0 17 -14
20 -59 3 -45 11 -68 33 -96 15 -21 36 -40 45 -42 12 -3 19 -18 23 -45 10 -71
81 -128 162 -128 54 0 93 18 128 59 25 30 25 36 26 171 l1 141 -62 -3 -63 -3
3 -35 c2 -19 10 -42 17 -50 36 -41 10 -100 -45 -100 -54 0 -80 69 -40 105 15
14 20 31 20 72 0 29 -4 53 -10 53 -5 0 -10 -19 -10 -43 0 -24 -7 -53 -17 -67
-10 -14 -16 -33 -15 -44 2 -11 -1 -16 -7 -12 -15 10 -14 0 4 -34 19 -37 47
-52 82 -44 74 17 89 53 53 129 -22 48 -15 59 31 47 34 -8 34 -9 31 -59 -2 -28
1 -54 6 -57 7 -4 7 -17 2 -36 -5 -17 -6 -45 -4 -63 6 -38 -34 -94 -61 -83 -9
3 -14 2 -10 -3 7 -12 -61 -35 -81 -27 -8 3 -12 11 -8 17 4 7 -1 7 -16 -1 -18
-9 -21 -9 -15 0 5 8 3 11 -6 8 -16 -5 -49 21 -49 40 0 7 -5 10 -12 6 -8 -5 -9
-2 -5 10 4 9 3 15 -2 12 -4 -3 -8 9 -9 27 0 21 -9 39 -25 52 -36 31 -75 88
-69 104 2 8 1 11 -4 8 -5 -3 -9 13 -9 35 0 30 -5 44 -20 52 -36 20 -74 54 -68
60 4 3 1 6 -5 6 -7 0 -12 6 -12 14 0 11 16 14 65 13 36 0 65 -5 65 -9 0 -5 4
-7 9 -3 5 3 12 1 16 -5 11 -19 62 -10 89 15 29 27 34 69 11 101 -8 12 -11 25
-7 29 4 5 2 5 -4 2 -6 -3 -24 -3 -40 2 -21 6 -36 3 -54 -10 -29 -20 -39 -22
-102 -20 -45 1 -47 2 -39 23 5 13 17 23 27 23 10 0 19 7 19 15 1 8 7 13 15 12
8 -2 12 0 8 4 -5 4 0 13 11 20 13 9 20 31 24 75 5 56 9 65 45 98 21 20 42 50
47 66 5 17 9 33 10 38 2 4 3 10 4 15 1 4 6 0 12 -8 9 -13 10 -13 6 2 -8 23 58
82 84 75 10 -3 22 -1 25 4 11 18 93 -11 128 -45 17 -17 19 -34 20 -162 1 -133
0 -142 -18 -141 -20 2 -40 42 -30 59 4 6 2 8 -3 5 -6 -4 -13 2 -16 13 -4 16
-14 20 -49 20 -30 0 -51 6 -65 19 -20 19 -46 21 -89 7 -64 -20 -38 -145 30
-146 20 0 20 0 0 -15 -18 -14 -18 -14 4 -8 12 3 22 8 22 12 0 11 60 42 70 36
5 -3 6 -15 1 -27 -13 -36 20 -63 79 -63 26 0 51 -3 54 -6 3 -3 7 -41 8 -85 l3
-79 -85 -6 -85 -5 93 -2 92 -2 0 103 0 102 -70 -2 -70 -3 0 54 c0 53 0 53 -27
48 -16 -3 -32 -11 -36 -18 -12 -20 -71 -17 -90 4 -21 23 -22 51 -1 80 20 28
65 29 90 1 15 -17 28 -20 66 -17 l48 3 0 -54 c0 -44 3 -52 16 -47 9 3 29 6 45
6 l29 0 0 148 c0 166 -4 178 -70 212 -54 28 -127 27 -171 -3z"/>
<path d="M774 1161 c-51 -31 -64 -58 -64 -131 l0 -65 59 3 c36 2 65 9 72 18 6
8 26 14 45 14 36 0 54 -21 54 -62 0 -33 -12 -47 -47 -54 -24 -5 -36 -1 -52 15
-16 16 -33 21 -76 21 l-55 0 0 -285 0 -285 45 0 45 0 0 55 0 55 55 0 c30 0 55
4 55 8 0 28 85 34 102 8 13 -19 9 -73 -7 -86 -21 -17 -62 -16 -84 4 -9 9 -30
16 -44 16 -26 0 -27 -2 -27 -55 l0 -55 -70 0 -70 0 0 -48 c0 -54 16 -81 64
-111 39 -25 110 -28 160 -7 42 18 85 73 93 120 3 20 9 36 13 36 14 0 58 46 74
77 9 18 16 52 16 78 0 25 4 45 9 45 5 0 8 20 7 45 l-1 45 -103 0 -104 0 4 60
c3 49 0 64 -14 77 -40 36 -9 103 48 103 47 0 72 -71 37 -103 -11 -9 -18 -29
-17 -49 l1 -33 85 -3 c62 -2 88 1 96 11 10 11 -3 13 -73 9 -84 -4 -85 -4 -85
19 1 13 7 35 15 49 21 37 18 64 -10 93 -25 24 -81 44 -68 24 3 -5 -3 -6 -17
-2 -13 4 -20 3 -17 -2 3 -5 -5 -22 -19 -38 -26 -31 -30 -40 -12 -29 8 5 9 2 4
-11 -4 -10 0 -28 10 -43 10 -15 16 -43 16 -66 -1 -22 5 -50 14 -64 15 -23 20
-24 105 -20 l89 3 0 -32 c0 -17 -5 -35 -11 -39 -6 -3 -9 -19 -6 -34 3 -15 1
-33 -6 -40 -8 -9 -8 -11 -1 -7 15 8 -19 -59 -42 -84 -9 -10 -20 -16 -24 -14
-4 3 -13 -10 -20 -28 -32 -86 -72 -135 -105 -129 -15 2 -17 1 -6 -6 22 -15
-77 -13 -114 3 -19 7 -40 26 -47 42 -26 55 -12 83 42 83 48 0 70 8 70 26 0 8
4 14 9 14 12 0 9 33 -4 42 -6 5 -5 8 3 8 7 0 11 4 7 9 -3 5 0 13 6 17 7 4 9 3
6 -3 -3 -5 10 -15 30 -22 27 -10 32 -15 22 -23 -10 -6 -6 -7 11 -2 38 10 79
43 85 67 7 28 2 86 -6 81 -4 -2 -20 3 -36 11 -24 12 -35 12 -61 3 -18 -7 -32
-15 -32 -18 0 -4 -21 -7 -47 -9 -63 -3 -74 -15 -82 -93 -1 -5 -8 -8 -17 -8 -8
0 -12 4 -9 10 3 5 2 10 -3 10 -13 0 -15 443 -1 472 8 18 17 23 43 22 18 -1 44
-9 57 -17 28 -17 93 -34 69 -17 -10 6 -11 10 -2 10 22 0 52 39 52 69 0 15 -9
40 -21 55 -24 30 -59 34 -103 11 -16 -8 -45 -14 -65 -12 -35 2 -36 3 -37 47
-2 37 4 51 28 80 17 19 27 28 22 20 -6 -12 -5 -13 7 -4 31 24 78 33 112 22 48
-17 99 -69 100 -104 1 -17 13 -41 29 -57 16 -16 28 -33 28 -39 0 -6 3 -9 6 -5
10 10 55 -84 49 -103 -9 -28 4 -48 46 -72 21 -11 36 -25 33 -30 -3 -4 -1 -8 5
-8 15 0 46 -63 33 -68 -7 -2 -7 -14 -2 -33 5 -18 5 -27 -1 -24 -5 4 -9 -5 -9
-19 0 -14 -4 -27 -8 -30 -4 -2 -6 10 -4 29 2 18 0 35 -5 38 -6 4 -11 -20 -12
-55 -2 -53 0 -60 12 -49 25 20 47 77 47 122 0 55 -37 119 -84 144 -32 17 -36
24 -36 60 -1 54 -32 119 -68 140 -22 13 -32 28 -36 56 -7 42 -45 93 -87 114
-41 21 -127 19 -165 -4z"/>
</g>
</svg>
